<svg
  width="24"
  height="24"
  xmlns="http://www.w3.org/2000/svg"
  viewBox="0 0 24 24"
  fill="none"
  stroke="currentColor"
  stroke-width="2"
  stroke-linecap="round"
  stroke-linejoin="round"
>
  <g clip-path="url(#clip0)">
    <path d="M32 14.56a.4.4 0 00-.4-.4h-1.974a.41.41 0 01-.403-.358C28.453 8.06 23.69 3.5 17.695 2.769a.41.41 0 01-.362-.403V.51a.4.4 0 00-.4-.4h-1.866a.4.4 0 00-.4.4v1.856a.41.41 0 01-.362.403C8.31 3.5 3.546 8.06 2.777 13.802a.41.41 0 01-.403.358H.4a.4.4 0 00-.4.4v1.755c0 .22.18.4.4.4h1.974a.41.41 0 01.403.358c.77 5.741 5.533 10.301 11.528 11.033a.41.41 0 01.362.403v1.856c0 .22.179.4.4.4h1.866a.4.4 0 00.4-.4v-1.856a.41.41 0 01.362-.403c5.995-.733 10.759-5.292 11.528-11.033a.41.41 0 01.403-.358H31.6a.4.4 0 00.4-.4V14.56zM17.78 25.504a.388.388 0 01-.447-.388v-1.615a.4.4 0 00-.4-.4h-1.866a.4.4 0 00-.4.4v1.615c0 .24-.21.427-.447.389-4.448-.72-7.963-4.082-8.725-8.34a.386.386 0 01.386-.45H7.6a.4.4 0 00.4-.4V14.56a.4.4 0 00-.4-.4H5.881a.386.386 0 01-.386-.45c.762-4.259 4.277-7.62 8.725-8.34a.388.388 0 01.447.388v1.616c0 .22.179.4.4.4h1.866a.4.4 0 00.4-.4V5.758c0-.24.21-.426.447-.388 4.448.72 7.963 4.081 8.725 8.34a.386.386 0 01-.386.45H24.4a.4.4 0 00-.4.4v1.755c0 .22.18.4.4.4h1.719c.241 0 .428.212.386.45-.762 4.258-4.277 7.62-8.725 8.34z"></path>
    <path d="M16 17.992c1.473 0 2.667-1.144 2.667-2.555 0-1.41-1.194-2.554-2.667-2.554-1.473 0-2.666 1.144-2.666 2.554 0 1.411 1.193 2.555 2.666 2.555z"></path>
    <g clip-path="url(#clip1)" fill-rule="evenodd" clip-rule="evenodd">
      <path d="M32.666.11c.277 0 .5.214.5.479v10.538a.49.49 0 01-.5.478.49.49 0 01-.5-.479V.59a.49.49 0 01.5-.48z"></path>
      <path d="M29.826 2.657a2.301 2.301 0 011.59-.631h3.75c.277 0 .5.214.5.479a.49.49 0 01-.5.479h-3.75c-.331 0-.649.126-.883.35-.235.225-.367.53-.367.847 0 .318.132.622.367.847.234.225.552.35.883.35h2.5c.597 0 1.17.228 1.592.632.421.404.658.953.658 1.524a2.11 2.11 0 01-.658 1.524 2.301 2.301 0 01-1.592.632h-4.25a.49.49 0 01-.5-.48.49.49 0 01.5-.478h4.25c.332 0 .65-.127.884-.351.235-.225.367-.53.367-.847 0-.317-.132-.622-.367-.847a1.278 1.278 0 00-.883-.35h-2.5a2.301 2.301 0 01-1.591-.632 2.11 2.11 0 01-.66-1.524c0-.571.238-1.12.66-1.524z"></path>
    </g>
  </g>
  <defs>
    <clipPath id="clip0">
      <rect width="36" height="30.655" transform="translate(0 .11)"></rect>
    </clipPath>
    <clipPath id="clip1">
      <rect width="12" height="11.496" transform="translate(26.666 .11)"></rect>
    </clipPath>
  </defs>
</svg>
