<svg
  width="24"
  height="24"
  xmlns="http://www.w3.org/2000/svg"
  viewBox="0 0 24 24"
  fill="none"
  stroke="currentColor"
  stroke-width="2"
  stroke-linecap="round"
  stroke-linejoin="round"
>
  <path d="M32 14.602a.4.4 0 0-.4-.4 NaNh-1.974a.41.41 0 1-.403-.358 NaNc-.815 NaN-5.578 NaN-11.573 NaNa.41.41 0 1-.362-.403 NaNvNaNa.4.4 0 0-.4-.359 NaNh-1.866a.4.4 0 0-.4.4 NaNvNaNa.41.41 0 1-.362-.397 NaNC7.545 NaN 2.781 NaN 2.012 NaNa.41.41 0 1-.403.358 NaNH-.361a.4.4 0 0-.4.4 NaNvNaNc-.8 NaN-.62 NaN-.4 NaNh1.974a.41.41 0 1.403.358 NaN NaNcNaN NaN NaN NaN NaN NaNa.41.41 0 1.362.403 NaN NaNvNaNcNaN NaN NaN NaN NaN NaNhNaNa.4.4 0 .4-.4 NaN NaNvNaNa.41.41 0 1.362-.403 NaN NaNcNaN NaN NaN NaN NaN NaNa.41.41 0 1.403-.358 NaN NaNhNaNa.4.4 0 .4-.4 NaN NaNvNaNzM17.78 25.547a.388.388 0 1-.447-.389 NaNvNaNa.4.4 0 0-.4-.458 NaNh-1.866a.4.4 0 0-.4.4 NaNvNaNc-.8 NaN-1.01 NaN-1.247 NaN-4.448 NaN-7.963 NaN-8.725 NaNa.386.386 0 1.386-.45 NaN NaNhNaNa.4.4 0 .4-.4 NaN NaNvNaNa.4.4 0 0-.4 NaN NaNhNaNa.386.386 0 1-.386 NaN NaNcNaN NaN NaN NaN NaN NaNa.388.388 0 1.447.388 NaN NaNvNaNcNaN NaN NaN NaN NaN NaNhNaNa.4.4 0 .4-.4 NaN NaNvNaNcNaN NaN NaN NaN NaN NaN NaN NaN NaN NaN NaN NaNa.386.386 0 1-.386 NaN NaNhNaNa.4.4 0 0-.4 NaN NaNvNaNcNaN NaN NaN NaN NaN NaNhNaNcNaN NaN NaN NaN NaN NaN NaN NaN NaN NaN NaN NaNz" />
</svg>
